<svg width="640" height="640" xmlns="http://www.w3.org/2000/svg" xmlns:xlink="http://www.w3.org/1999/xlink" preserveAspectRatio="xMidYMid meet">
 <defs>
  <path id="a8urv6u12S" d="m360.82,6.56c-9.48,9.48 -85.32,85.32 -94.8,94.8c-8.75,8.75 -8.75,22.98 0,31.73c1.42,1.42 8.52,8.52 21.29,21.29l-52.63,52.62c-49.75,-5.48 -77.39,-8.53 -82.91,-9.14c-3.92,-0.39 -7.84,-0.65 -11.63,-0.65c-28.33,0 -55.1,11.1 -75.08,31.07c-2.72,2.72 -24.44,24.45 -27.16,27.17c-8.75,8.74 -8.75,22.98 0,31.73c9.45,9.44 56.67,56.67 141.68,141.67c-103.73,103.74 -161.36,161.36 -172.89,172.89c-8.75,8.75 -8.75,22.98 0,31.73c4.31,4.31 10.06,6.53 15.8,6.53c5.75,0 11.49,-2.22 15.8,-6.53c11.54,-11.53 69.21,-69.21 173.02,-173.02c85.01,85.01 132.23,132.24 141.68,141.68c4.31,4.31 10.05,6.53 15.8,6.53c5.74,0 11.49,-2.22 15.8,-6.53c2.71,-2.71 24.44,-24.44 27.16,-27.16c22.98,-22.98 34.08,-54.58 30.42,-86.7c-0.61,-5.53 -3.65,-33.17 -9.14,-82.92l52.63,-52.62c12.69,12.69 19.74,19.74 21.15,21.15c8.75,8.75 22.98,8.75 31.73,0c9.48,-9.48 85.32,-85.32 94.8,-94.8c4.18,-4.18 6.53,-9.92 6.53,-15.8c0,-5.88 -2.35,-11.62 -6.53,-15.8c-16.05,-16.06 -96.31,-96.37 -240.79,-240.92c-15.32,-5.83 -25.9,-5.83 -31.73,0zm140.9,298.64c-8.36,-8.36 -23.25,-8.36 -31.73,0c-7.6,7.61 -68.4,68.51 -76,76.12c-4.83,4.83 -7.18,11.49 -6.4,18.28c1.03,9.35 9.29,84.15 10.32,93.5c2.09,18.67 -4.31,36.95 -17.63,50.14c-0.76,0.76 -4.55,4.55 -11.36,11.36l-283.49,-283.49c6.82,-6.73 10.6,-10.48 11.36,-11.23c13.19,-13.18 31.6,-19.58 50.14,-17.62c9.37,1.03 84.27,9.28 93.63,10.31c6.79,0.79 13.45,-1.56 18.28,-6.4c7.6,-7.6 68.4,-68.39 76,-75.99c8.75,-8.75 8.75,-22.98 0,-31.73c-1.42,-1.42 -8.52,-8.52 -21.29,-21.29l63.07,-63.07l209.32,209.32l-63.07,63.07c-12.69,-12.77 -19.74,-19.87 -21.15,-21.28z"/>
  <path id="aGoimR9G8" d="m117.81,239.71l-43.07,34.3l291.98,283.22l32.84,-24.82l-6.57,-140.88l94.89,-89.05l35.77,25.55l63.5,-64.96l-214.6,-210.95l-59.85,66.42l24.82,44.53l-90.51,88.32l-127.01,-11.68"/>
 </defs>
 <g>
  <title>background</title>
  <rect fill="none" id="canvas_background" height="602" width="802" y="-1" x="-1"/>
 </g>
 <g>
  <title>Layer 1</title>
  <g id="svg_1">
   <g id="svg_2">
    <g id="svg_3">
     <use id="svg_4" fill="#000000" xlink:href="#a8urv6u12S"/>
     <g id="svg_5">
      <use fill="#000000" id="svg_6" stroke-opacity="0" stroke="#000000" fill-opacity="0" xlink:href="#a8urv6u12S"/>
     </g>
    </g>
    <g id="svg_7"/>
   </g>
   <path id="svg_12" d="m357.5,568l-290.5,-293c0.5,0 43.5,-55 44.5,-55c1,0 131,10 130.5,10c0.5,0 66.5,-67 69.5,-67c3,0 -22,-45 -22.5,-45c0.5,0 86.5,-87 86,-87c0.5,0 224.5,221 226.5,221c2,0 -81,94 -81.5,94c0.5,0 -34.5,-35 -35,-35c0.5,0 -77.5,81 -78,81c0.5,0 15.5,127 15,127c0.5,0 -8.5,-16 -64.5,49z" stroke-width="1.5" stroke="#000" fill="#000000"/>
  </g>
 </g>
</svg>